<?xml version="1.0" encoding="UTF-8"?>
<svg id="_Слой_2" data-name="Слой 2" xmlns="http://www.w3.org/2000/svg" viewBox="0 0 204.39 51.06">
  <defs>
    <style>
      .cls-1 {
        letter-spacing: .14em;
      }

      .cls-2 {
        letter-spacing: .15em;
      }

      .cls-3 {
        fill: #009ed3;
      }

      .cls-4 {
        fill: #fff;
        font-family: Bounded-Black, Bounded;
        font-size: 29.2px;
        font-weight: 800;
      }

      .cls-5 {
        letter-spacing: .11em;
      }

      .cls-6 {
        letter-spacing: .11em;
      }
    </style>
  </defs>
  <g id="_Слой_1-2" data-name="Слой 1">
    <g>
      <circle class="cls-3" cx="25.51" cy="25.54" r="25.51" transform="translate(-3.76 4.42) rotate(-9.22)"/>
      <path class="cls-3" d="M197.96,8.51c-9.26-10.41-24.65-11.21-36.06-2.56-8.32,6.31-18.62,7.22-27.6.46-3.63-2.73-7.56-4.59-11.55-5.57-4.37-1.15-8.99-1.13-13.38.15-3.82,1.08-7.41,3.1-10.52,6.08-1.87,1.31-4.57,1.57-6.51-.21-10.7-9.85-26.11-8.72-35.58.97-9.3,9.52-9.69,24.97-.4,35.02,9.03,9.78,25.13,11.39,35.52,1.71,2.01-1.87,4.7-2.37,6.81-.72,1.65,1.61,3.46,2.94,5.36,4,.14.08.28.15.42.23.18.1.36.19.55.29.27.14.55.27.83.4.05.02.1.05.15.07,4.81,2.18,10.1,2.72,15.12,1.76.07-.01.14-.02.21-.04.12-.02.24-.05.36-.07,4.24-.85,8.4-2.72,12.14-5.57,8.72-6.65,19.44-6.43,28.12.19,11.09,8.46,25.89,7.88,35.28-1.8,9.27-9.55,9.6-24.84.74-34.79Z"/>
    </g>
    <text class="cls-4" transform="translate(20.01 33.36)"><tspan class="cls-1" x="0" y="0">r</tspan><tspan class="cls-5" x="21.2" y="0">a</tspan><tspan class="cls-2" x="46.9" y="0">y</tspan><tspan class="cls-6" x="75.16" y="0">v</tspan><tspan class="cls-2" x="102" y="0">e</tspan></text>
  </g>
</svg>